<!DOCTYPE svg PUBLIC "-//W3C//DTD SVG 1.1//EN" "http://www.w3.org/Graphics/SVG/1.1/DTD/svg11.dtd">
<svg version="1.1" xmlns="http://www.w3.org/2000/svg" xmlns:xlink="http://www.w3.org/1999/xlink" x="0px" y="0px" width="291.1px"
	 height="236.6px" viewBox="0 0 291.1 236.6" style="enable-background:new 0 0 291.1 236.6;" xml:space="preserve">
<g id="base">
	<path style="fill-rule:evenodd;clip-rule:evenodd;fill:#FFFFFF;" d="M218.5,13.8c0,9.9,0,19.8,0,29.7c-21.3-5.8-46.1-9.7-73.1-9.7
		c-27,0-51.7,4-72.9,9.7c0-9.9,0-19.7,0-29.6c19-5.9,41.2-8.7,65.4-9.9C167.5,2.7,195.3,7.7,218.5,13.8z M139.7,27.1
		c5.8-1.8,5.9-18.4-2.7-16.6C130.2,12,130.9,29.8,139.7,27.1z M145.2,13c0.3,0.1,0.9-0.2,0.9,0.2c0,3.8,0,7.5,0,11.3
		c-0.3,0-0.6,0-0.9,0c0,0.8,0,1.7,0,2.5c1.5,0,2.9,0,4.4,0c0-0.8,0-1.6,0-2.3c-0.1-0.3-0.9,0-0.9-0.3c0.1-2.9-0.2-6.2,0-8.6
		c1.1,4.1,2.7,7.8,4.1,11.6c1,0,2.1,0,3.1,0c0-4.7,0-9.4,0-14.1c1.4,0.3,0.5-1.6,0.8-2.5c-1.5,0.1-2.8-0.1-4.2-0.2
		c0,0.8,0,1.7,0,2.5c0.3,0.1,0.9-0.2,0.9,0.2c-0.1,2.4,0.2,5.3,0,7.2c-1-3.4-2.1-6.7-3.3-9.9c-1.6,0-3.2,0-4.9,0
		C145.2,11.3,145.2,12.2,145.2,13z M128.3,11c-0.1,0.3,0.2,0.9-0.2,0.9c-2.5-2.4-5.7,0.1-5.9,2.7c-0.5,4.6,4.6,6,5.2,8.1
		c0.8,3-3.3,3.5-2.5-0.5c-0.6,0.3-1.7,0.1-2.5,0.2c0,1.8,0,3.7,0,5.5c0.7-0.2,1.6-0.2,2.5-0.2c0.1-0.3-0.2-0.9,0.2-0.9
		c3,2.4,5.9-0.9,6.1-3.1c0.5-4.9-4.9-6.3-5.3-8.3c-0.6-2.9,3.2-2.3,2.5,0.6c0.7-0.2,1.5-0.2,2.3-0.2c0-1.7,0-3.3,0-5
		C129.7,10.7,129.2,11,128.3,11z M164.6,13.5c0.2,0.4,1.1-0.1,1.3,0.3c0,3.8,0,7.6,0,11.4c-0.6,0.2-0.9-0.3-1.3,0c0,0.8,0,1.6,0,2.3
		c2,0.2,4,0.3,5.9,0.5c0-0.8,0-1.6,0-2.3c0.1-0.4-0.7,0.1-0.6-0.3c0.1-1.6-0.2-3.5,0.2-4.9c0.5,0.3,1.8,0,2.3,0.3c0,1.6,0,3.2,0,4.9
		c-0.3,0-0.5,0-0.8,0c0,0.8,0,1.6,0,2.3c1.9,0.3,3.9,0.5,5.9,0.6c0-0.8,0-1.7,0-2.5c-0.4-0.1-1.1,0.2-1.3-0.2c0-3.8,0-7.6,0-11.4
		c0.6-0.1,0.8,0.2,1.3,0.2c0-0.8,0-1.7,0-2.5c-1.9-0.1-4.3-0.6-5.9-0.5c0,0.7,0,1.5,0,2.2c0.1,0.4,0.9,0,0.8,0.5
		c-0.1,1.3,0.2,2.9-0.2,3.9c-0.6-0.3-1.8,0-2.3-0.3c0-1.4,0-2.7,0-4.1c1.2,0.2,0.4-1.6,0.6-2.3c-1.9-0.3-3.9-0.4-5.9-0.5
		C164.6,11.9,164.6,12.7,164.6,13.5z M115.3,12c0,0.8,0,1.6,0,2.3c0.3,0.1,0.9-0.2,0.9,0.2c-1,1.7-1.7,3.7-2.7,5.3
		c0.7,2.1,1.7,4,2.3,6.1c-0.3,0-0.5,0-0.8,0c0,0.8,0,1.7,0,2.5c1.9-0.2,3.6-0.5,5.6-0.5c0.3-0.6,0.1-1.7,0.2-2.5c-0.4,0-0.7,0-1.1,0
		c-0.9-2.4-1.9-4.7-2.8-7c1.1-1.4,1.1-4,3.1-4.5c0-0.8,0-1.6,0-2.3C118.4,11.6,116.8,11.7,115.3,12z M108.1,12.8c0,0.8,0,1.6,0,2.3
		c0.3,0.1,1-0.2,1.1,0.2c0,3.8,0,7.5,0,11.3c-0.2,0.2-0.7,0.2-1.1,0.2c0,0.8,0,1.7,0,2.5c1.9-0.3,4.1-0.4,5.9-0.8c0-0.8,0-1.6,0-2.3
		c-0.2-0.1-0.8,0.2-0.8-0.2c0-3.8,0-7.5,0-11.3c0.1-0.4,1.1,0.1,0.9-0.5c0-0.7,0-1.5,0-2.2C112.3,12.4,110,12.4,108.1,12.8z
		 M185.6,29.9c7.5-0.5,5.8-19.1-2.8-16.9C176.4,14.6,178.3,30.4,185.6,29.9z M103.9,13.3c0,0.4,0,0.7,0,1.1
		c-0.9-1.3-3.3-1.1-4.4-0.2c-3.3,2.6-4.4,15.4,1.6,16.1c3.1,0.4,5.6-2,5.8-5.9c-1.1,0-2.2-0.5-3-0.3c-0.1,1.7-0.1,3.3-1.7,3.4
		c-1.1-0.7-1.3-6.7-0.9-9.5c0.5-3.2,2.8-1.6,2.7,0.9c0.8-0.1,1.6-0.3,2.5-0.3c0-1.9,0-3.8,0-5.6C105.6,13.1,104.9,13.3,103.9,13.3z
		 M191.5,16.6c0.6,0,1.1,0.1,1.4,0.3c0,3.8,0,7.6,0,11.4c-0.4-0.1-0.8-0.2-1.4-0.2c0,0.8,0,1.6,0,2.3c3.6,0.7,7.5,1.2,11,2
		c0-2.5,0-4.9,0-7.4c-0.9-0.3-2-0.4-3-0.6c-0.1,1.6,0.2,3.5-0.2,4.9c-0.8-0.2-2-0.1-2.5-0.6c0-3.8,0-7.6,0-11.4
		c0.5,0.2,1,0.3,1.7,0.3c0-0.8,0-1.7,0-2.5c-2.5-0.2-4.6-0.8-7-1.1C191.5,14.9,191.5,15.8,191.5,16.6z M85.6,16.4c0,0.8,0,1.7,0,2.5
		c0.4,0.2,0.8-0.4,0.9,0c-0.4,4-1.2,7.6-1.6,11.6c-0.3,0.3-0.9,0.3-1.3,0.5c0,0.8,0,1.6,0,2.3c2-0.3,3.8-0.7,5.6-1.1
		c0-0.8,0-1.6,0-2.3c0.1-0.4-0.8,0.4-0.9-0.2c0.2-1,0.1-2.2,0.5-3c0.8,0,2-0.5,2.5-0.3c0.3,0.8,0.2,2,0.5,2.8
		c-0.2,0.3-0.9,0.1-1.1,0.3c0,0.8,0,1.6,0,2.3c2-0.2,3.7-0.7,5.6-0.9c0-0.8,0-1.7,0-2.5c-0.4,0-0.6,0.2-1.1,0.2
		c-0.4-3.9-1.3-7.3-1.7-11.1c0.2-0.3,0.9-0.1,1.1-0.3c0-0.8,0-1.6,0-2.3C91.4,15.2,88.7,16,85.6,16.4z M203.6,18.8
		c0.6,0,1.1,0.1,1.4,0.3c0,3.8,0,7.6,0,11.4c-0.4-0.1-1-0.2-1.4-0.3c0,0.8,0,1.7,0,2.5c3.7,0.7,7.3,1.6,11,2.3c0-1.8,0-3.5,0-5.3
		c-0.9-0.2-1.8-0.5-2.8-0.6c-0.1,0.9,0.2,2.2-0.2,2.8c-0.9-0.3-2.1-0.2-2.7-0.8c0-1.5,0-3,0-4.5c0.7,0.2,1.4,0.4,2.2,0.5
		c0-0.8,0-1.6,0-2.3c-0.6-0.3-1.6-0.3-2.2-0.6c0.1-1.4-0.2-3.1,0.2-4.2c0.9,0.3,2.1,0.2,2.7,0.8c0,0.8,0,1.7,0,2.5
		c0.9,0.2,1.7,0.6,2.8,0.6c0-1.7,0-3.4,0-5.2c-3.6-0.8-7.1-1.7-11-2.3C203.6,17.1,203.6,17.9,203.6,18.8z M76.4,18.6
		c0,0.8,0,1.6,0,2.3c0.7,0.1,1.2-0.5,1.6-0.2c-0.3,4,0.4,10.6,0,14.4c-0.2,1.5-1,1.8-1.9,2.3c0,0.9,0,1.8,0,2.7
		c8.7,0,4.7-12.6,5.6-20.3c0.4-0.2,0.8-0.3,1.4-0.3c0-0.8,0-1.7,0-2.5c-0.1,0-0.2,0-0.3,0C80.7,17.6,78.4,18,76.4,18.6z"/>
	<path style="fill-rule:evenodd;clip-rule:evenodd;fill:#015353;" d="M137.1,10.5c8.6-1.8,8.5,14.8,2.7,16.6
		C130.9,29.8,130.2,12,137.1,10.5z M136.8,16.6c-0.1,2.1-0.4,8,1.4,8c1.5,0,1.7-6.9,1.3-9.7c-0.2-1.2-0.8-2.2-1.9-1.7
		C136.9,13.9,136.8,15.4,136.8,16.6z"/>
	<path style="fill-rule:evenodd;clip-rule:evenodd;fill:#015353;" d="M145.2,10.5c1.6,0,3.2,0,4.9,0c1.2,3.2,2.3,6.5,3.3,9.9
		c0.2-1.9-0.1-4.8,0-7.2c0-0.3-0.7-0.1-0.9-0.2c0-0.8,0-1.7,0-2.5c1.4,0.1,2.7,0.2,4.2,0.2c-0.2,0.9,0.6,2.8-0.8,2.5
		c0,4.7,0,9.4,0,14.1c-1,0-2.1,0-3.1,0c-1.4-3.8-2.9-7.5-4.1-11.6c-0.2,2.4,0.1,5.7,0,8.6c0.1,0.4,0.8,0,0.9,0.3c0,0.8,0,1.6,0,2.3
		c-1.5,0-2.9,0-4.4,0c0-0.8,0-1.7,0-2.5c0.3,0,0.6,0,0.9,0c0-3.8,0-7.5,0-11.3c0-0.3-0.7-0.1-0.9-0.2
		C145.2,12.2,145.2,11.3,145.2,10.5z"/>
	<path style="fill-rule:evenodd;clip-rule:evenodd;fill:#015353;" d="M130.7,10.8c0,1.7,0,3.3,0,5c-0.9,0-1.7,0-2.3,0.2
		c0.7-2.9-3.1-3.5-2.5-0.6c0.4,2,5.8,3.4,5.3,8.3c-0.2,2.3-3.1,5.6-6.1,3.1c-0.3,0-0.1,0.7-0.2,0.9c-0.9,0-1.8,0-2.5,0.2
		c0-1.8,0-3.7,0-5.5c0.9,0,1.9,0.1,2.5-0.2c-0.8,4,3.3,3.4,2.5,0.5c-0.6-2.1-5.7-3.6-5.2-8.1c0.3-2.5,3.4-5.1,5.9-2.7
		c0.3,0,0.1-0.7,0.2-0.9C129.2,11,129.7,10.7,130.7,10.8z"/>
	<path style="fill-rule:evenodd;clip-rule:evenodd;fill:#015353;" d="M164.6,11.1c2.1,0.1,4.1,0.2,5.9,0.5c-0.2,0.8,0.6,2.6-0.6,2.3
		c0,1.4,0,2.7,0,4.1c0.6,0.3,1.7,0,2.3,0.3c0.3-1,0.1-2.6,0.2-3.9c0.1-0.5-0.7-0.1-0.8-0.5c0-0.7,0-1.5,0-2.2c1.7-0.1,4,0.3,5.9,0.5
		c0,0.8,0,1.7,0,2.5c-0.5,0-0.7-0.3-1.3-0.2c0,3.8,0,7.6,0,11.4c0.1,0.4,0.9,0.1,1.3,0.2c0,0.8,0,1.7,0,2.5
		c-2.1-0.1-4.1-0.3-5.9-0.6c0-0.8,0-1.6,0-2.3c0.3,0,0.5,0,0.8,0c0-1.6,0-3.2,0-4.9c-0.5-0.4-1.8,0-2.3-0.3
		c-0.4,1.3-0.1,3.3-0.2,4.9c-0.1,0.4,0.7-0.1,0.6,0.3c0,0.8,0,1.6,0,2.3c-1.9-0.2-4-0.3-5.9-0.5c0-0.8,0-1.6,0-2.3
		c0.3-0.3,0.6,0.2,1.3,0c0-3.8,0-7.6,0-11.4c-0.1-0.4-1.1,0-1.3-0.3C164.6,12.7,164.6,11.9,164.6,11.1z"/>
	<path style="fill-rule:evenodd;clip-rule:evenodd;fill:#015353;" d="M120.2,11.6c0,0.8,0,1.6,0,2.3c-2,0.5-2,3.1-3.1,4.5
		c0.9,2.4,1.9,4.7,2.8,7c0.4,0,0.7,0,1.1,0c-0.1,0.8,0.2,1.9-0.2,2.5c-2,0-3.8,0.3-5.6,0.5c0-0.8,0-1.7,0-2.5c0.3,0,0.5,0,0.8,0
		c-0.7-2.1-1.6-4-2.3-6.1c1-1.7,1.7-3.6,2.7-5.3c0-0.3-0.7-0.1-0.9-0.2c0-0.8,0-1.6,0-2.3C116.8,11.7,118.4,11.6,120.2,11.6z"/>
	<path style="fill-rule:evenodd;clip-rule:evenodd;fill:#015353;" d="M114.2,12c0,0.7,0,1.5,0,2.2c0.1,0.6-0.8,0.1-0.9,0.5
		c0,3.8,0,7.5,0,11.3c0,0.3,0.6,0.1,0.8,0.2c0,0.8,0,1.6,0,2.3c-1.8,0.4-4,0.5-5.9,0.8c0-0.8,0-1.7,0-2.5c0.4,0,0.9,0.1,1.1-0.2
		c0-3.8,0-7.5,0-11.3c-0.1-0.4-0.8-0.1-1.1-0.2c0-0.8,0-1.6,0-2.3C110,12.4,112.3,12.4,114.2,12z"/>
	<path style="fill-rule:evenodd;clip-rule:evenodd;fill:#015353;" d="M182.8,13c8.7-2.2,10.4,16.4,2.8,16.9
		C178.3,30.4,176.4,14.6,182.8,13z M183.9,15.8c-0.6,1.8-1,6.9-0.5,9.5c0.2,0.9,0.7,1.8,1.6,1.7c1.6-1.8,1.2-9.7,0.2-11.4
		C184.4,15.6,184.3,15.5,183.9,15.8z"/>
	<path style="fill-rule:evenodd;clip-rule:evenodd;fill:#015353;" d="M106.4,13c0,1.9,0,3.8,0,5.6c-0.9,0-1.7,0.2-2.5,0.3
		c0.2-2.6-2.2-4.1-2.7-0.9c-0.4,2.8-0.2,8.8,0.9,9.5c1.6-0.1,1.7-1.8,1.7-3.4c0.7-0.2,1.9,0.3,3,0.3c-0.2,3.9-2.7,6.3-5.8,5.9
		c-5.9-0.7-4.9-13.5-1.6-16.1c1.1-0.9,3.4-1.2,4.4,0.2c0-0.4,0-0.7,0-1.1C104.9,13.3,105.6,13.1,106.4,13z"/>
	<path style="fill-rule:evenodd;clip-rule:evenodd;fill:#FFFFFF;" d="M137.6,13.1c1.1-0.5,1.7,0.5,1.9,1.7c0.4,2.8,0.3,9.7-1.3,9.7
		c-1.9,0.1-1.5-5.9-1.4-8C136.8,15.4,136.9,13.9,137.6,13.1z"/>
	<path style="fill-rule:evenodd;clip-rule:evenodd;fill:#015353;" d="M191.5,14.1c2.4,0.3,4.6,0.8,7,1.1c0,0.8,0,1.7,0,2.5
		c-0.7,0-1.2-0.1-1.7-0.3c0,3.8,0,7.6,0,11.4c0.6,0.5,1.7,0.4,2.5,0.6c0.4-1.3,0.1-3.3,0.2-4.9c1,0.2,2.1,0.3,3,0.6
		c0,2.5,0,4.9,0,7.4c-3.5-0.9-7.3-1.3-11-2c0-0.8,0-1.6,0-2.3c0.6,0,1,0,1.4,0.2c0-3.8,0-7.6,0-11.4c-0.3-0.2-0.8-0.3-1.4-0.3
		C191.5,15.8,191.5,14.9,191.5,14.1z"/>
	<path style="fill-rule:evenodd;clip-rule:evenodd;fill:#015353;" d="M94.7,14.9c0,0.8,0,1.6,0,2.3c-0.2,0.3-0.9,0.1-1.1,0.3
		c0.5,3.8,1.3,7.3,1.7,11.1c0.5,0.1,0.7-0.1,1.1-0.2c0,0.8,0,1.7,0,2.5c-1.9,0.3-3.7,0.7-5.6,0.9c0-0.8,0-1.6,0-2.3
		c0.2-0.3,0.9-0.1,1.1-0.3c-0.3-0.8-0.2-2-0.5-2.8c-0.5-0.2-1.7,0.3-2.5,0.3c-0.3,0.8-0.3,2-0.5,3c0.1,0.5,1-0.2,0.9,0.2
		c0,0.8,0,1.6,0,2.3c-1.9,0.4-3.7,0.8-5.6,1.1c0-0.8,0-1.6,0-2.3c0.4-0.2,0.9-0.2,1.3-0.5c0.4-4,1.1-7.6,1.6-11.6
		c-0.1-0.4-0.5,0.2-0.9,0c0-0.8,0-1.7,0-2.5C88.7,16,91.4,15.2,94.7,14.9z M89,24.7c0.7-0.1,1.3-0.3,2-0.3c-0.1-2.4-0.5-4.5-0.8-6.7
		c-0.2,0-0.3,0-0.5,0C89.6,20.1,89.3,22.4,89,24.7z"/>
	<path style="fill-rule:evenodd;clip-rule:evenodd;fill:#FFFFFF;" d="M185.1,15.6c1,1.7,1.5,9.7-0.2,11.4c-0.8,0.1-1.4-0.8-1.6-1.7
		c-0.5-2.6-0.1-7.7,0.5-9.5C184.3,15.5,184.4,15.6,185.1,15.6z"/>
	<path style="fill-rule:evenodd;clip-rule:evenodd;fill:#015353;" d="M203.6,16.3c3.8,0.6,7.3,1.5,11,2.3c0,1.7,0,3.4,0,5.2
		c-1.1,0-1.9-0.4-2.8-0.6c0-0.8,0-1.7,0-2.5c-0.6-0.6-1.8-0.5-2.7-0.8c-0.4,1.1-0.1,2.9-0.2,4.2c0.6,0.3,1.6,0.3,2.2,0.6
		c0,0.8,0,1.6,0,2.3c-0.8-0.1-1.5-0.3-2.2-0.5c0,1.5,0,3,0,4.5c0.6,0.6,1.8,0.5,2.7,0.8c0.4-0.6,0.1-1.9,0.2-2.8
		c1,0.1,1.9,0.4,2.8,0.6c0,1.8,0,3.5,0,5.3c-3.7-0.7-7.2-1.6-11-2.3c0-0.8,0-1.7,0-2.5c0.4,0.1,1,0.2,1.4,0.3c0-3.8,0-7.6,0-11.4
		c-0.3-0.2-0.8-0.3-1.4-0.3C203.6,17.9,203.6,17.1,203.6,16.3z"/>
	<path style="fill-rule:evenodd;clip-rule:evenodd;fill:#015353;" d="M82.8,17.1c0.1,0,0.2,0,0.3,0c0,0.8,0,1.7,0,2.5
		c-0.6,0-1,0.2-1.4,0.3c-0.9,7.8,3.1,20.4-5.6,20.3c0-0.9,0-1.8,0-2.7c0.8-0.6,1.7-0.9,1.9-2.3c0.4-3.8-0.3-10.4,0-14.4
		c-0.4-0.3-0.9,0.3-1.6,0.2c0-0.8,0-1.6,0-2.3C78.4,18,80.7,17.6,82.8,17.1z"/>
	<path style="fill-rule:evenodd;clip-rule:evenodd;fill:#FFFFFF;" d="M89.8,17.7c0.2,0,0.3,0,0.5,0c0.3,2.2,0.7,4.3,0.8,6.7
		c-0.8,0-1.4,0.2-2,0.3C89.3,22.4,89.6,20.1,89.8,17.7z"/>
	<path style="fill-rule:evenodd;clip-rule:evenodd;fill:#FFFFFF;" d="M68.4,26.8c0,0,0.3,0,0.3,0c0.7,2.9,0,7.3,0,11
		c0,1.7,0,3.6,0,5.5c0,1.8-0.4,4.1,0,5.3c0.3,0.9,2.6,2.4,3.3,3c1.3,1,2.4,1.8,3.6,2.7c-9.8,2.8-19.4,5.8-28.5,9.2
		c1.3-6.2,3-11.9,4.9-17.5c-3.8-3.7-8.3-6.8-13-9.5C48,32.4,58.2,29.5,68.4,26.8z"/>
	<path style="fill-rule:evenodd;clip-rule:evenodd;fill:#FFFFFF;" d="M222.4,26.8c10.4,2.5,20,5.9,29.6,9.2c-4.3,3.2-9,6.1-13,9.7
		c1.9,5.7,3.7,11.3,4.9,17.7c-9-3.4-18.3-6.4-28-9.1c-0.2-0.5,0.7-1,1.3-1.4c1.6-1.3,3.8-2.8,5.3-4.2
		C222.4,41.4,222.4,34.1,222.4,26.8z"/>
	<path style="fill-rule:evenodd;clip-rule:evenodd;fill:#FFFFFF;" d="M217.4,47.4c0.2,0.5-0.6,0.7-0.9,0.9c-2.9,2.3-6.6,5.5-9.5,7.4
		c0-2,0-4,0-5.9c-35.8-9.3-86.3-9.4-122.8,0c0,1.9,0,3.9,0,5.8c-0.4,0.2-0.9-0.4-1.3-0.6c-1.3-1-2.7-2.2-4.1-3.3
		c-1.9-1.5-4.1-2.8-5.2-4.4C115.6,34.8,175.7,34.5,217.4,47.4z"/>
	<path style="fill-rule:evenodd;clip-rule:evenodd;fill:#015353;" d="M122.2,61.3c0.2,2.6,0.3,5.3,0.3,8.1c0,0.3,0.7,0.1,0.9,0.2
		c-0.8,2.6-2.1,4.8-3,7.4c-2.3,1.5-4.7,2.9-6.9,4.5c-3.2-2.5-6.8-4.9-13-3.9c-0.8-0.7-1.6-1.4-2.5-2c-2.2-0.1-4.1,0.2-6.3,0.2
		c0-1.8,0-3.7,0-5.5c2.7-0.4,4.1-1.8,6.1-3.4c1.2-1,2.8-2.7,3.8-2.8c2-0.2,2.7,1.9,4.4,2.5c-1.7,1.9-3.5,3.7-5.5,5.3
		c-1.1-0.1-1.7,0.3-2.8,0.2c0,0.7,0.4,1,0.6,1.6c1.5-0.4,2.9-0.7,4.5-0.9c0.3-0.2-0.3-1.2,0.2-1.6c1.6-0.1,2.9-0.4,4.4-0.6
		c-0.1-1-0.2-2-0.5-2.8c0.8-0.2,2.5,1.7,3.6,2.3c-1.3,2.3-4,3.1-7,3.6c0.5,0.6,1.5,0.8,2,1.4c3.1-1,5.9-2.2,9.1-3.1
		c-0.6-0.8-1.5-1.3-2.3-1.9c1.1-1.2,3-1.2,4.1-2.3c0.4-0.5,0.4-1.2,0.8-1.7C118.5,64,120.9,63.2,122.2,61.3z"/>
	<path style="fill-rule:evenodd;clip-rule:evenodd;fill:#015353;" d="M173.7,89.4c-2.6-3.5-6.6-6.9-9.5-10.6
		c2.9-0.9,5.8-1.8,8.6-2.8c1,0.6,1.4,1.8,2.2,2.7c3.1,1.2,6,2.6,8.9,4.1c-0.5,1.3-2.3,1.2-3.4,1.9c6,2.9,12.5,5.3,18.6,8
		c0,1.5,0,2.9,0,4.4c-32.7-4.6-74.5-4.6-107.2,0c0-1.5,0-2.9,0-4.4c6.2-3.9,13.8-6.4,18.2-12c1.3,0.7,2.3,1.5,3.4,2.3
		c3.9-2.3,7.4-5,11.4-7.2c2.1,3.1,4,6.3,6.3,9.2c1,0,1.8-0.3,3-0.2c1.4,2.7,5.6,2.7,8.4,3.9c-2.2-2.4-5.9-4.5-8.9-6.6
		c4.8-2.4,9.4-5,14.2-7.4c-0.3,0.6-0.6,1.3-0.9,1.9c1.3,0.9,2.7,1.6,4.1,2.5c0.3-0.9,0.4-2,0.8-2.8c2.4,0.6,2.9,3.2,4.1,5
		c1.4-0.3,2.9-0.4,4.2-0.8C164.7,83.3,169.3,86.3,173.7,89.4z"/>
	<path style="fill-rule:evenodd;clip-rule:evenodd;fill:#015353;" d="M126.4,75.3c3.1,0,4.2,2,5.3,4.1c1.5,0,3,0,4.5,0
		c-1.2,0.9-2.7,1.5-4.1,2.2C129.5,80.3,128.2,77.5,126.4,75.3z"/>
	<path style="fill-rule:evenodd;clip-rule:evenodd;fill:#015353;" d="M105,78.6c0.3,0.6-1.6,1.6-2,2.5c0.3,0.8,0.8,1.2,1.1,2
		c-2.8-0.6-3.6,0.8-5.2,2.2c-2.4,2.2-4.8,5-7,6.6c0-5,0-10,0-15c1.9,0,4-0.6,5.8-0.2c1.3,0.3,1.8,1.8,2.8,2
		C102.1,78.8,103.3,78.4,105,78.6z"/>
	<path style="fill-rule:evenodd;clip-rule:evenodd;fill:#FFFFFF;" d="M140.5,102.5c0-0.4,0-0.7,0-1.1c0.9,0,1.8,0,2.7,0
		c0,1.8,0,3.7,0,5.5c-0.9,0-1.8,0-2.7,0c0.9-2.2-2.3-4.1-2.7-1.7c-0.5,3,5.9,4.1,5.8,9.4c-0.1,3.4-3.7,6.4-6.7,3.6
		c-0.1,0.3,0.2,0.9-0.2,0.9c-0.6,0.3-1.6,0.1-2.5,0.2c0-1.9,0-3.9,0-5.8c0.9,0,1.8,0,2.7,0c-0.9,3.4,3.3,4.3,2.8,0.9
		c-0.5-3.3-6.2-4-5.6-9.4C134.4,102.3,137.8,99.9,140.5,102.5z"/>
	<path style="fill-rule:evenodd;clip-rule:evenodd;fill:#FFFFFF;" d="M144.9,101.4c4.1-0.1,7.8,0.2,11.9,0.2c0,1.9,0,3.8,0,5.6
		c-1,0-2.1,0-3.1,0c0-0.9,0-1.9,0-2.8c-0.7-0.4-2-0.1-3-0.2c0,1.5,0,2.9,0,4.4c0.4,0.4,1.5,0.1,2.2,0.2c0.3,0.6,0.1,1.8,0.2,2.7
		c-0.8,0-1.6,0-2.3,0c0,1.6,0,3.2,0,4.9c0.7,0.4,2,0.1,3,0.2c0-1,0-2.1,0-3.1c1.2-0.1,1.9,0.3,3.1,0.2c0,1.9,0,3.9,0,5.8
		c-3.8-0.2-7.9-0.2-11.9-0.2c0-0.9,0-1.8,0-2.7c0.5,0,1.3,0.1,1.6-0.2c0-4,0-7.9,0-11.9c-0.2-0.4-1.1-0.1-1.6-0.2
		C144.9,103.3,144.9,102.3,144.9,101.4z"/>
	<path style="fill-rule:evenodd;clip-rule:evenodd;fill:#FFFFFF;" d="M125.8,101.7c9.7-1.6,8.7,20.9-1.3,17.8
		C118.7,117.8,119,102.8,125.8,101.7z M125.2,106.4c-0.4,2.8-0.5,10.3,1.3,10.3c1.1,0,1.4-2.1,1.4-3c0.1-1.8,0.1-5.1,0-6.6
		c-0.1-0.9-0.2-2.3-1.1-2.5C125.8,104.3,125.3,105.5,125.2,106.4z"/>
	<path style="fill-rule:evenodd;clip-rule:evenodd;fill:#FFFFFF;" d="M165.6,101.9c5.7,0.1,11.3,0,11.9,5.2c0.2,2-0.5,3.2-1.7,4.2
		c0.4,2,0.9,3.9,1.3,5.9c-0.1,0.5,0.7,0.1,0.8,0.5c0,0.8,0,1.7,0,2.5c-1.4,0.1-2.4-0.3-3.9-0.2c-0.4-2.7-1.2-5.1-1.6-7.8
		c-0.6,0.1-0.8-0.2-1.3-0.2c-0.4,1.3-0.1,3.3-0.2,4.9c0.2,0.3,0.8,0.1,1.1,0.3c0,0.9,0,1.8,0,2.7c-2.1-0.1-4.2-0.3-6.4-0.3
		c0-0.9,0-1.8,0-2.7c0.4,0,0.7,0,1.1,0c0-4,0-8,0-12c-0.2-0.3-0.8-0.1-1.1-0.3C165.6,103.6,165.6,102.8,165.6,101.9z M170.9,109.5
		c3.3,0.7,3-5.4,0-4.9C170.9,106.3,170.9,107.9,170.9,109.5z"/>
	<path style="fill-rule:evenodd;clip-rule:evenodd;fill:#FFFFFF;" d="M112.4,102.5c9.7-1.6,8.4,21.2-1.6,17.7
		C104.8,118.1,105.8,103.6,112.4,102.5z M112.4,105.5c-0.5,0.6-0.7,1.8-0.8,2.8c-0.2,2.6-0.5,9.1,1.3,9.2c2.2,0.1,1.9-11.5,0.5-12.2
		C112.8,105.2,112.8,105.6,112.4,105.5z"/>
	<path style="fill-rule:evenodd;clip-rule:evenodd;fill:#FFFFFF;" d="M178.9,102.7c4,0.4,8.1,0.6,12,1.1c0,1.9,0,3.8,0,5.6
		c-1-0.1-2.1-0.2-3.1-0.3c0-0.9,0-1.9,0-2.8c-0.8-0.4-2.3-0.1-3.1-0.5c0,1.5,0,3,0,4.5c0.6,0.3,1.6,0.2,2.3,0.3c0,0.9,0,1.8,0,2.7
		c-0.9,0.1-1.3-0.2-2.2-0.2c-0.4,1.3-0.1,3.3-0.2,4.9c0.3,0.4,1.4-0.1,1.7,0.3c0,0.8,0,1.7,0,2.5c-2.1,0.1-5-0.4-7.5-0.5
		c0-0.9,0-1.8,0-2.7c0.5,0,1,0,1.6,0c0-4,0-8,0-12c-0.2-0.4-1.3,0.1-1.6-0.3C178.9,104.4,178.9,103.5,178.9,102.7z"/>
	<path style="fill-rule:evenodd;clip-rule:evenodd;fill:#FFFFFF;" d="M105.5,103.3c0,0.9,0,1.8,0,2.7c-0.4,0-0.9-0.1-1.1,0.2
		c0,4,0,8,0,12c0.2,0.4,0.6-0.2,1.1,0c0,0.9,0,1.8,0,2.7c-2,0.3-4.2,0.4-6.3,0.6c0-0.8,0-1.6,0-2.3c-0.1-0.5,0.7-0.3,0.9-0.5
		c0-4.1,0-8.2,0-12.4c-1.5,4.7-1.9,10.5-3.1,15.5c-0.5,0-0.9,0-1.4,0c-0.9-5-1.8-9.9-2.8-14.7c-0.4,3.8-0.1,8.2-0.2,12.2
		c0,0.3,0.7,0.1,0.9,0.2c0,0.9,0,1.8,0,2.7c-1.6,0.2-3.2,0.3-4.7,0.6c0-0.9,0-1.9,0-2.8c0.5,0,1,0.1,1.3-0.2c0-4,0-7.9,0-11.9
		c-0.1-0.4-0.9-0.1-1.3-0.2c0-0.9,0-1.8,0-2.7c2.3-0.2,4.5-0.6,6.9-0.8c0.3,2.3,0.6,4.6,1.1,6.7c0.7-2,0.8-4.7,1.3-7
		C100.6,103.8,102.9,103.4,105.5,103.3z"/>
	<path style="fill-rule:evenodd;clip-rule:evenodd;fill:#FFFFFF;" d="M198.7,105.6c0.1-0.3-0.2-0.9,0.2-0.9c1.1,0,1.9,0.1,2.8,0.3
		c0,2,0,4,0,5.9c-1.1,0-1.9-0.3-3-0.3c0.3-3.2-2.3-4.9-2.7-1.6c-0.4,3.1-0.3,10.3,1.4,10.3c1.3,0,1.3-1.9,1.4-3.4
		c1.1,0.5,2.2,0.9,3.3,1.4c-0.1,3.9-3.9,6.6-7.5,4.1c-4.6-3.2-5.3-17.5,2.2-17.4C197.6,104.5,198.2,105,198.7,105.6z"/>
	<path style="fill-rule:evenodd;clip-rule:evenodd;fill:#015353;" d="M126.8,104.7c0.9,0.2,1,1.6,1.1,2.5c0.1,1.5,0.1,4.7,0,6.6
		c-0.1,0.9-0.3,3-1.4,3c-1.8,0-1.7-7.5-1.3-10.3C125.3,105.5,125.8,104.3,126.8,104.7z"/>
	<path style="fill-rule:evenodd;clip-rule:evenodd;fill:#015353;" d="M170.9,104.7c3-0.6,3.3,5.5,0,4.9
		C170.9,107.9,170.9,106.3,170.9,104.7z"/>
	<path style="fill-rule:evenodd;clip-rule:evenodd;fill:#015353;" d="M113.3,105.3c1.4,0.8,1.8,12.3-0.5,12.2
		c-1.8-0.1-1.4-6.6-1.3-9.2c0.1-1,0.2-2.2,0.8-2.8C112.8,105.6,112.8,105.2,113.3,105.3z"/>
	<path style="fill-rule:evenodd;clip-rule:evenodd;fill:#FFFFFF;" d="M202.5,128.2c-4.4,29.2-21.6,47-46,56.8
		c-1.5,0.6-3.5,1.4-5.3,2c-1.9,0.6-4.3,1.6-5.6,1.6c-1.4,0-3.9-0.9-5.8-1.6c-12.7-4.1-24-11-32.2-19.2c-10-10-16.7-22.4-19.1-39.6
		C123.3,123,167.7,123,202.5,128.2z M147.4,128.2c0.1,18.6-0.2,37.6,0.2,55.9c25.7-8.8,45.1-23.9,50.4-53c-15.9-2-32.5-3.3-50.4-3.3
		C147.4,127.7,147.4,127.9,147.4,128.2z M124.4,144.9c-2.5-4.2-1.6-11.7-8.1-11.9c0.2,1.3,1.1,2.3,1.7,3.6c1.8,4.1,2.9,8.7,4.7,12.7
		c-2.4,5.6-4.9,11.1-7,16.9c1,0.3,1.8,0.9,3,1.1c1.8-4.6,3.5-9.3,5.8-13.5c1.7,4.6,3.2,9.3,5.2,13.6c0.9-0.5,2-0.7,2.8-1.3
		c-1.7-4.2-3.1-8.4-4.7-12.7c-0.5-1.3-1.6-3.1-1.6-4.2c0-1.4,1.5-3.7,2.3-5.6c1.6-3.7,4.5-8.4,0.5-11
		C128.1,137.4,126,140.9,124.4,144.9z"/>
	<path style="fill-rule:evenodd;clip-rule:evenodd;fill:#015353;" d="M147.6,127.7c17.9,0,34.5,1.3,50.4,3.3
		c-5.3,29.2-24.7,44.3-50.4,53c-0.4-18.3-0.1-37.3-0.2-55.9C147.4,127.9,147.4,127.7,147.6,127.7z M169.5,133.5
		c-7.8,1.7-14.5,12.2-16,21.4c-0.9,5.5,0.5,9.9,3.8,12.1c1.7-3.4,3.4-6.9,5.2-10.2c-1.1-0.5-0.8-2.3-0.2-3.1c-0.3-0.3-1-0.2-0.9-0.8
		c0.1,0,0.2-0.1,0.2-0.3c0.4-0.3,0.7,0.3,1.3,0.3c0-0.5,0.3-0.7,0.5-1.1c-0.3-0.3-1-0.2-0.9-0.8c0.3-1,1.1,0.2,1.6-0.2
		c0-0.5,0.4-0.5,0.3-0.9c-0.2-0.4-1-0.2-0.9-0.8c0.3-1,1.1,0.2,1.6-0.2c0-0.5,0.4-0.5,0.3-0.9c-0.2-0.4-1-0.2-0.9-0.8
		c0.3-0.8,0.9-0.2,1.6-0.2c0-0.5,0.3-0.7,0.5-1.1c-0.4-0.2-1-0.1-0.9-0.8c0.2,0,0.2-0.3,0.3-0.5c0.4,0.2,0.5,0.5,1.1,0.5
		c0.3-1.1,1-1.7,2.5-1.6c1.5-3.4,3.4-6.4,4.9-9.9C172.8,133.3,171.1,133.1,169.5,133.5z M169.9,143.8c0.6,0.9,0.8,2.3,0.2,3.3
		c0.3,0.2,0.8,0.2,0.9,0.6c-0.2,0.1-0.3,0.3-0.3,0.6c-0.6,0-0.9-0.7-1.3-0.3c0,0.5-0.4,0.5-0.3,0.9c0.2,0.4,0.8,0.3,0.9,0.6
		c-0.2,0.1-0.3,0.3-0.3,0.6c-0.6,0-0.9-0.7-1.3-0.3c0,0.5-0.3,0.6-0.5,0.9c0.3,0.3,1.1,0.2,0.9,0.9c-0.1,0-0.2,0.1-0.2,0.3
		c-0.6,0-0.8-0.3-1.3-0.5c0,0.6-0.4,0.7-0.5,1.3c0.4,0.1,0.9,0.1,0.9,0.6c-0.3,0.7-0.9,0.3-1.4,0c0,0.6-0.4,0.7-0.5,1.3
		c0.4,0.1,0.9,0.1,0.9,0.6c-0.2,0.1-0.3,0.3-0.3,0.6c-0.4-0.1-0.6-0.4-1.1-0.5c-0.5,1-1,1.9-2.7,1.7c-1.5,3.6-3.5,6.6-5,10.2
		c6.7,1.5,11.5-2.9,15-7.7c3-4.2,5.2-9.1,5.6-14.1c0.4-4.6-0.2-9.4-3.9-11.4C173.3,137.6,171.6,140.7,169.9,143.8z M167.4,145.8
		c0.2,0,0.3,0.1,0.5,0.2c0.3-0.5,0.5-1,0.8-1.6C167.9,144.5,167.5,145,167.4,145.8z M168.7,146.5c0.1,0,0.3,0,0.3,0.2
		c0.5,0,1-1.4,0.3-1.6C169.2,145.6,168.9,146,168.7,146.5z M166.5,147.7c0.2,0,0.3,0.1,0.5,0.2c0.1-0.4,0.5-0.6,0.5-1.3
		c-0.2,0-0.3-0.1-0.5-0.2C166.8,146.9,166.5,147.1,166.5,147.7z M167.8,148.3c0.3,0,0.3,0.2,0.6,0.2c0-0.5,0.3-0.7,0.5-1.1
		C168.2,146.9,167.9,147.8,167.8,148.3z M165.4,149.6c0.3,0,0.3,0.2,0.6,0.2c0-0.6,0.5-0.6,0.5-1.1
		C165.8,148.2,165.5,149.1,165.4,149.6z M167,150.4c0.8,0.1,0.6-0.8,0.9-1.1c-0.3,0-0.3-0.2-0.6-0.2
		C167.2,149.6,166.6,150,167,150.4z M164.5,151.5c0.3,0,0.3,0.2,0.6,0.2c0-0.5,0.3-0.7,0.5-1.1C164.9,150,164.6,150.9,164.5,151.5z
		 M166,152.3c0.7,0,0.7-0.6,0.8-1.1c-0.2,0-0.3-0.1-0.5-0.2C166.2,151.4,165.7,151.8,166,152.3z M163.7,153.5
		c0.8,0.1,0.6-0.8,0.9-1.1c-0.3,0-0.3-0.2-0.6-0.2C163.9,152.7,163.3,153.1,163.7,153.5z M164.9,154.1c0.1,0,0.2,0,0.3,0
		c0,0.1,0,0.2,0.2,0.2c0-0.6,0.6-0.6,0.5-1.3c-0.2,0-0.3-0.1-0.5-0.2C165.3,153.3,164.9,153.5,164.9,154.1z M162.9,156
		c0.1-0.7,0.6-0.9,0.6-1.7c-0.2,0-0.2-0.2-0.5-0.2C162.8,154.5,162.2,155.6,162.9,156z M163.7,156.3c0.9,0,0.9-0.7,1.3-1.3
		c-0.2-0.1-0.4-0.2-0.6-0.3C164.2,155.4,163.8,155.7,163.7,156.3z"/>
	<path style="fill-rule:evenodd;clip-rule:evenodd;fill:#015353;" d="M128.9,132.7c4,2.6,1.1,7.2-0.5,11c-0.8,1.9-2.3,4.3-2.3,5.6
		c0,1.2,1.1,2.9,1.6,4.2c1.6,4.3,3,8.5,4.7,12.7c-0.8,0.6-2,0.7-2.8,1.3c-1.9-4.3-3.5-9-5.2-13.6c-2.2,4.2-3.9,8.9-5.8,13.5
		c-1.2-0.2-2-0.8-3-1.1c2.2-5.8,4.6-11.3,7-16.9c-1.8-3.9-2.9-8.6-4.7-12.7c-0.6-1.3-1.6-2.3-1.7-3.6c6.5,0.2,5.6,7.7,8.1,11.9
		C126,140.9,128.1,137.4,128.9,132.7z M124.2,147.3c0.5,0.4,1.1,0.6,1.7,0.8C127,146.5,124.3,145.5,124.2,147.3z M123.8,148
		c0.6,0.3,1.2,0.6,1.9,0.8C125.6,148.1,124.1,147.5,123.8,148z M123.5,148.7c0.3,0.6,1.3,0.6,1.9,0.9
		C125.2,148.8,124,148.5,123.5,148.7z M123.2,149.4c0.3,0.4,1.6,1.2,1.9,0.6C124.5,149.8,123.7,149.2,123.2,149.4z M122.8,150.2
		c0.3,0.6,1.4,0.9,1.9,0.8C124.4,150.5,123.3,150.1,122.8,150.2z M124.4,151.6c-0.6-0.3-1.2-0.6-1.9-0.8
		C122.6,151.5,124.1,152.2,124.4,151.6z M121.9,152.7c0.5,0.3,1.2,0.5,1.7,0.8c0.2-0.4,0.3-0.8,0.5-1.1c-0.6-0.3-1.2-0.6-1.9-0.8
		C122.3,152.2,121.9,152.2,121.9,152.7z"/>
	<path style="fill-rule:evenodd;clip-rule:evenodd;fill:#FFFFFF;" d="M174,133.8c-1.5,3.4-3.3,6.5-4.9,9.9c-1.5-0.2-2.2,0.5-2.5,1.6
		c-0.6,0.1-0.7-0.3-1.1-0.5c-0.1,0.1-0.1,0.4-0.3,0.5c-0.1,0.7,0.5,0.6,0.9,0.8c-0.1,0.4-0.4,0.6-0.5,1.1c-0.7-0.1-1.2-0.6-1.6,0.2
		c0,0.6,0.8,0.4,0.9,0.8c0,0.5-0.4,0.5-0.3,0.9c-0.5,0.3-1.2-0.8-1.6,0.2c0,0.6,0.8,0.4,0.9,0.8c0,0.5-0.4,0.5-0.3,0.9
		c-0.5,0.3-1.2-0.8-1.6,0.2c0,0.6,0.6,0.5,0.9,0.8c-0.1,0.4-0.4,0.6-0.5,1.1c-0.6,0-0.9-0.7-1.3-0.3c0,0.2,0,0.3-0.2,0.3
		c0,0.6,0.6,0.5,0.9,0.8c-0.7,0.8-0.9,2.6,0.2,3.1c-1.8,3.3-3.5,6.8-5.2,10.2c-3.3-2.1-4.6-6.6-3.8-12.1c1.4-9.2,8.2-19.7,16-21.4
		C171.1,133.1,172.8,133.3,174,133.8z"/>
	<path style="fill-rule:evenodd;clip-rule:evenodd;fill:#FFFFFF;" d="M174.8,134.3c3.7,2.1,4.3,6.9,3.9,11.4
		c-0.5,5-2.6,9.9-5.6,14.1c-3.5,4.8-8.4,9.2-15,7.7c1.5-3.6,3.5-6.6,5-10.2c1.7,0.2,2.2-0.7,2.7-1.7c0.5,0,0.7,0.3,1.1,0.5
		c0-0.3,0.1-0.5,0.3-0.6c0-0.5-0.6-0.5-0.9-0.6c0-0.6,0.4-0.7,0.5-1.3c0.5,0.3,1.1,0.7,1.4,0c0-0.5-0.6-0.5-0.9-0.6
		c0-0.6,0.4-0.7,0.5-1.3c0.4,0.1,0.6,0.5,1.3,0.5c0-0.2,0-0.3,0.2-0.3c0.1-0.8-0.6-0.6-0.9-0.9c0.1-0.3,0.5-0.5,0.5-0.9
		c0.4-0.3,0.7,0.3,1.3,0.3c0-0.3,0.1-0.5,0.3-0.6c-0.2-0.4-0.8-0.3-0.9-0.6c0-0.5,0.4-0.5,0.3-0.9c0.4-0.3,0.7,0.3,1.3,0.3
		c0-0.3,0.1-0.5,0.3-0.6c-0.1-0.4-0.6-0.4-0.9-0.6c0.7-1,0.5-2.4-0.2-3.3C171.6,140.7,173.3,137.6,174.8,134.3z"/>
	<path style="fill-rule:evenodd;clip-rule:evenodd;fill:#FFFFFF;" d="M168.7,144.4c-0.3,0.5-0.5,1-0.8,1.6c-0.1-0.1-0.3-0.2-0.5-0.2
		C167.5,145,167.9,144.5,168.7,144.4z"/>
	<path style="fill-rule:evenodd;clip-rule:evenodd;fill:#FFFFFF;" d="M169.3,145.1c0.7,0.2,0.2,1.6-0.3,1.6c0-0.2-0.2-0.1-0.3-0.2
		C168.9,146,169.2,145.6,169.3,145.1z"/>
	<path style="fill-rule:evenodd;clip-rule:evenodd;fill:#FFFFFF;" d="M126,148c-0.6-0.2-1.2-0.4-1.7-0.8
		C124.3,145.5,127,146.5,126,148z"/>
	<path style="fill-rule:evenodd;clip-rule:evenodd;fill:#FFFFFF;" d="M167,146.5c0.1,0.1,0.3,0.2,0.5,0.2c0,0.6-0.3,0.8-0.5,1.3
		c-0.1-0.1-0.3-0.2-0.5-0.2C166.5,147.1,166.8,146.9,167,146.5z"/>
	<path style="fill-rule:evenodd;clip-rule:evenodd;fill:#FFFFFF;" d="M168.8,147.4c-0.1,0.4-0.4,0.6-0.5,1.1c-0.3,0-0.3-0.2-0.6-0.2
		C167.9,147.8,168.2,146.9,168.8,147.4z"/>
	<path style="fill-rule:evenodd;clip-rule:evenodd;fill:#FFFFFF;" d="M125.7,148.8c-0.7-0.2-1.3-0.5-1.9-0.8
		C124.1,147.5,125.6,148.1,125.7,148.8z"/>
	<path style="fill-rule:evenodd;clip-rule:evenodd;fill:#FFFFFF;" d="M125.3,149.6c-0.6-0.3-1.5-0.3-1.9-0.9
		C124,148.5,125.2,148.8,125.3,149.6z"/>
	<path style="fill-rule:evenodd;clip-rule:evenodd;fill:#FFFFFF;" d="M166.5,148.7c0,0.5-0.5,0.5-0.5,1.1c-0.3,0-0.3-0.2-0.6-0.2
		C165.5,149.1,165.8,148.2,166.5,148.7z"/>
	<path style="fill-rule:evenodd;clip-rule:evenodd;fill:#FFFFFF;" d="M167.3,149.1c0.3,0,0.3,0.2,0.6,0.2c-0.3,0.3-0.2,1.2-0.9,1.1
		C166.6,150,167.2,149.6,167.3,149.1z"/>
	<path style="fill-rule:evenodd;clip-rule:evenodd;fill:#FFFFFF;" d="M125,150.1c-0.2,0.6-1.6-0.2-1.9-0.6
		C123.7,149.2,124.5,149.8,125,150.1z"/>
	<path style="fill-rule:evenodd;clip-rule:evenodd;fill:#FFFFFF;" d="M124.7,151c-0.5,0.1-1.6-0.2-1.9-0.8
		C123.3,150.1,124.4,150.5,124.7,151z"/>
	<path style="fill-rule:evenodd;clip-rule:evenodd;fill:#FFFFFF;" d="M165.6,150.5c-0.1,0.4-0.4,0.6-0.5,1.1c-0.3,0-0.3-0.2-0.6-0.2
		C164.6,150.9,164.9,150,165.6,150.5z"/>
	<path style="fill-rule:evenodd;clip-rule:evenodd;fill:#FFFFFF;" d="M122.5,150.9c0.7,0.2,1.3,0.5,1.9,0.8
		C124.1,152.2,122.6,151.5,122.5,150.9z"/>
	<path style="fill-rule:evenodd;clip-rule:evenodd;fill:#FFFFFF;" d="M166.3,151c0.1,0.1,0.3,0.2,0.5,0.2c-0.1,0.5-0.1,1.1-0.8,1.1
		C165.7,151.8,166.2,151.4,166.3,151z"/>
	<path style="fill-rule:evenodd;clip-rule:evenodd;fill:#FFFFFF;" d="M122.2,151.6c0.7,0.2,1.3,0.5,1.9,0.8
		c-0.2,0.3-0.3,0.7-0.5,1.1c-0.5-0.3-1.2-0.5-1.7-0.8C121.9,152.2,122.3,152.2,122.2,151.6z"/>
	<path style="fill-rule:evenodd;clip-rule:evenodd;fill:#FFFFFF;" d="M164,152.3c0.3,0,0.3,0.2,0.6,0.2c-0.3,0.3-0.2,1.2-0.9,1.1
		C163.3,153.1,163.9,152.7,164,152.3z"/>
	<path style="fill-rule:evenodd;clip-rule:evenodd;fill:#FFFFFF;" d="M165.4,152.9c0.1,0.1,0.3,0.2,0.5,0.2c0.1,0.7-0.5,0.6-0.5,1.3
		c-0.1,0-0.1-0.1-0.2-0.2c-0.1,0-0.2,0-0.3,0C164.9,153.5,165.3,153.3,165.4,152.9z"/>
	<path style="fill-rule:evenodd;clip-rule:evenodd;fill:#FFFFFF;" d="M163.1,154.1c0.3,0,0.3,0.1,0.5,0.2c0,0.8-0.6,1-0.6,1.7
		C162.2,155.6,162.8,154.5,163.1,154.1z"/>
	<path style="fill-rule:evenodd;clip-rule:evenodd;fill:#FFFFFF;" d="M164.3,154.8c0.2,0.1,0.4,0.2,0.6,0.3
		c-0.3,0.5-0.4,1.3-1.3,1.3C163.8,155.7,164.2,155.4,164.3,154.8z"/>
	<path style="fill-rule:evenodd;clip-rule:evenodd;fill:#015353;" d="M154.6,70.3c-0.7-1.2-1.5-2.4-2.3-3.8
		c-0.7-1.1-2.1-2.4-2.3-3.6c-0.4-1.9,0.6-4,0.5-6.4c0.8,2,1.5,4.3,2.2,6.4c2.2,0.9,2.4,3.8,3.4,5.9c0.3,0,0.6,0.1,0.9,0
		c1.3-0.2,2.9-2.8,3.8-3.8c1.3-1.5,2.3-3.1,3.6-3.9c0.6,0.5,1.4,0.8,2,1.3c2.6-1.1,3.8-3.6,8-3.1c0.2,0.4-0.6,1.2-1.1,1.9
		c-2.1,2.8-4.3,6.3-8,7.7c0.5,0.9,1.1,1.7,1.6,2.7c1.8-0.6,3-1.9,4.7-2.7c0.2-1.5,0-3.4,0.3-4.9c0.3-0.3,1.1-0.1,1.7-0.2
		c0.5-1.2,0.8-2.7,1.3-3.9c0.5,1.2,0.8,2.6,1.3,3.9c0.9-0.4,2-0.6,3-0.9c-0.7,4.6-2.3,8.6-1.6,14.1c1.7-3.4,4.4-5.6,3.6-11.1
		c1.6,0.3,3.6,0.1,5.5,0.2c0.2,1.2,2.6,4.8,2.3,6.6c-0.2,1.1-1.5,1.1-2,2.2c0.2,2.2,0.9,4,1.1,6.3c1.2-2.6,1.5-6.1,2.5-8.9
		c-0.4-1.4-1.3-2.3-1.7-3.6c1.6,0.1,3.1,0.2,4.5,0.5c0.1,5.2-0.9,9.3-1.9,13.3c2.2-3.7,4.4-7.4,6.1-11.6c0.5,0.4,1.2,0.7,1.6,1.3
		c0,6.7,0,13.4,0,20c-4.8-3-9.3-6.3-14.1-9.2c0-0.3,0-0.6,0-0.9c-4.1-2.1-9.5-3.1-11.6-7.2c-3.5,1-6.8,2.2-10.2,3.3
		c-1.9-1-3.5-2.3-5.3-3.4c-0.6,0-1,0.3-1.4,0.5c-1.9-1-3.2-2.5-4.9-3.6c-4.8,2.6-9.7,5.2-14.6,7.7c-1.6-0.6-2.8-1.5-4.4-2
		c-1.5-2.7-3.2-5.2-4.9-7.7c-1.4,3-3.2,5.7-6.3,7c1-2.2,3-4.8,4.4-7c-0.4-1.9-1.2-3.5-1.6-5.5c-0.3-0.4-0.7,0.5-1.1,0
		c-0.1-1-0.6-1.6-0.6-2.7c0.7,0.2,1.4,0.4,2.2,0.6c1.1,1.7,2.7,4,4.1,6.1c0.2,0.4,1,2,1.3,2c0.2,0,1.9-1.5,2.2-1.7
		c0.9-0.7,1.3-1.2,2-1.7c0.8,0.2,1.1,0.9,1.7,1.3c0.8-1,1.7-2,2.3-3.1c0.4,0.2,0.7,0.5,1.1,0.8c1.1-2.7,3-4.9,5.3-6.9
		c1.3-1.2,2.9-2.6,5.2-2c-2.1,1.6-0.9,6.4-2.3,8.6C149.9,67,151.8,69,154.6,70.3z"/>
	<path style="fill-rule:evenodd;clip-rule:evenodd;fill:#FFFFFF;" d="M203,52.7c0,16,0,32,0,48c-35-5.4-80-5.3-115,0
		c0-16,0-31.9,0-47.9C121.2,44.6,169.5,44.8,203,52.7z M147.7,65.1c1.5-2.2,0.3-7,2.3-8.6c-2.3-0.6-3.8,0.9-5.2,2
		c-2.3,2-4.2,4.2-5.3,6.9c-0.4-0.3-0.7-0.6-1.1-0.8c-0.7,1.2-1.5,2.1-2.3,3.1c-0.6-0.4-0.9-1.1-1.7-1.3c-0.7,0.5-1.2,1-2,1.7
		c-0.2,0.2-2,1.8-2.2,1.7c-0.2,0-1-1.7-1.3-2c-1.4-2.1-3-4.4-4.1-6.1c-0.8-0.2-1.5-0.4-2.2-0.6c0,1.1,0.6,1.6,0.6,2.7
		c0.4,0.5,0.8-0.4,1.1,0c0.3,2,1.2,3.5,1.6,5.5c-1.4,2.3-3.4,4.9-4.4,7c3-1.4,4.8-4.1,6.3-7c1.7,2.5,3.3,5,4.9,7.7
		c1.6,0.6,2.8,1.5,4.4,2c4.9-2.5,9.7-5.1,14.6-7.7c1.7,1.1,3,2.6,4.9,3.6c0.4-0.2,0.8-0.5,1.4-0.5c1.8,1.1,3.4,2.4,5.3,3.4
		c3.4-1.1,6.7-2.3,10.2-3.3c2.1,4.1,7.5,5.1,11.6,7.2c0,0.3,0,0.6,0,0.9c4.8,2.9,9.3,6.2,14.1,9.2c0-6.7,0-13.4,0-20
		c-0.4-0.6-1-0.8-1.6-1.3c-1.7,4.2-3.9,7.9-6.1,11.6c1-4,2-8.1,1.9-13.3c-1.4-0.2-3-0.4-4.5-0.5c0.4,1.3,1.3,2.2,1.7,3.6
		c-1,2.8-1.3,6.3-2.5,8.9c-0.2-2.2-0.9-4-1.1-6.3c0.5-1.1,1.8-1.1,2-2.2c0.3-1.7-2.1-5.4-2.3-6.6c-1.8,0-3.9,0.1-5.5-0.2
		c0.8,5.5-1.9,7.7-3.6,11.1c-0.7-5.5,0.9-9.5,1.6-14.1c-1,0.3-2.1,0.6-3,0.9c-0.4-1.3-0.7-2.7-1.3-3.9c-0.5,1.2-0.7,2.7-1.3,3.9
		c-0.6,0.1-1.4-0.1-1.7,0.2c-0.3,1.4-0.1,3.3-0.3,4.9c-1.7,0.8-2.9,2-4.7,2.7c-0.5-0.9-1-1.8-1.6-2.7c3.7-1.4,5.9-4.9,8-7.7
		c0.5-0.7,1.3-1.5,1.1-1.9c-4.2-0.5-5.4,2-8,3.1c-0.6-0.5-1.4-0.7-2-1.3c-1.3,0.8-2.3,2.4-3.6,3.9c-0.8,1-2.5,3.5-3.8,3.8
		c-0.3,0.1-0.6,0-0.9,0c-1-2.1-1.3-5-3.4-5.9c-0.7-2.2-1.4-4.4-2.2-6.4c0.1,2.4-0.8,4.5-0.5,6.4c0.2,1.2,1.6,2.5,2.3,3.6
		c0.9,1.4,1.7,2.6,2.3,3.8C151.8,69,149.9,67,147.7,65.1z M117.2,65.9c-0.3,0.5-0.3,1.3-0.8,1.7c-1.1,1.2-2.9,1.2-4.1,2.3
		c0.8,0.6,1.7,1.1,2.3,1.9c-3.1,0.9-6,2.1-9.1,3.1c-0.6-0.6-1.5-0.8-2-1.4c3-0.5,5.7-1.3,7-3.6c-1.1-0.6-2.8-2.5-3.6-2.3
		c0.2,0.9,0.3,1.9,0.5,2.8c-1.4,0.2-2.8,0.5-4.4,0.6c-0.4,0.4,0.1,1.3-0.2,1.6c-1.6,0.2-3.1,0.6-4.5,0.9c-0.2-0.5-0.6-0.8-0.6-1.6
		c1.1,0.1,1.7-0.3,2.8-0.2c1.9-1.7,3.8-3.4,5.5-5.3c-1.7-0.6-2.4-2.7-4.4-2.5c-1,0.1-2.5,1.8-3.8,2.8c-2,1.6-3.4,3-6.1,3.4
		c0,1.8,0,3.7,0,5.5c2.1,0,4-0.3,6.3-0.2c0.9,0.6,1.7,1.4,2.5,2c6.2-1,9.8,1.4,13,3.9c2.2-1.6,4.6-3,6.9-4.5c0.9-2.5,2.2-4.7,3-7.4
		c-0.3-0.1-0.9,0.2-0.9-0.2c0-2.8-0.1-5.6-0.3-8.1C120.9,63.2,118.5,64,117.2,65.9z M160.1,80.4c-1.3,0.4-2.8,0.5-4.2,0.8
		c-1.2-1.8-1.6-4.4-4.1-5c-0.3,0.9-0.4,2-0.8,2.8c-1.3-0.9-2.8-1.6-4.1-2.5c0.3-0.6,0.6-1.3,0.9-1.9c-4.9,2.3-9.4,5-14.2,7.4
		c3,2.1,6.7,4.2,8.9,6.6c-2.9-1.2-7.1-1.2-8.4-3.9c-1.1-0.1-2,0.1-3,0.2c-2.3-2.9-4.2-6.1-6.3-9.2c-4,2.2-7.5,4.9-11.4,7.2
		c-1.1-0.8-2.2-1.7-3.4-2.3c-4.4,5.7-12,8.2-18.2,12c0,1.5,0,2.9,0,4.4c32.7-4.6,74.5-4.6,107.2,0c0-1.5,0-2.9,0-4.4
		c-6.1-2.7-12.6-5.1-18.6-8c1.1-0.6,2.9-0.6,3.4-1.9c-2.9-1.4-5.8-2.8-8.9-4.1c-0.8-0.9-1.2-2.1-2.2-2.7c-2.8,1-5.7,1.9-8.6,2.8
		c2.9,3.7,7,7.1,9.5,10.6C169.3,86.3,164.7,83.3,160.1,80.4z M132.2,81.5c1.4-0.7,2.9-1.3,4.1-2.2c-1.5,0-3,0-4.5,0
		c-1.1-2-2.2-4-5.3-4.1C128.2,77.5,129.5,80.3,132.2,81.5z M100.5,78.7c-1-0.2-1.5-1.7-2.8-2c-1.7-0.4-3.9,0.2-5.8,0.2
		c0,5,0,10,0,15c2.2-1.6,4.7-4.3,7-6.6c1.5-1.4,2.3-2.7,5.2-2.2c-0.3-0.8-0.8-1.3-1.1-2c0.4-0.9,2.4-1.9,2-2.5
		C103.3,78.4,102.1,78.8,100.5,78.7z"/>
	<path style="fill-rule:evenodd;clip-rule:evenodd;fill:#015353;" d="M138.2,0c4.9,0,9.8,0,14.7,0c24.4,0.8,49.3,4.8,69.5,11
		c0,3.9,0,7.8,0,11.7c13.6,3.5,26.5,7.6,38.3,12.8c-4.4,2.8-9.2,5.4-13.5,8.4c-1.3,1-2.8,2-3.6,3.3c2.2,7.1,4.1,14.5,5.5,22.4
		c-13.3-5.3-27.1-10-42.3-13.5c0,16,0,33.3,0,49.6c0,8.8,0.4,16.9-0.6,24.3c-3.8,27.6-21.1,45.6-42.9,56.2
		c-3.9,1.9-8.5,3.7-13.5,5.2c-1.6,0.5-3.5,1.3-4.5,1.3c-2.4-0.1-7.1-2.1-9.5-3c-21-7.6-37.1-21-45.9-40.7
		c-2.6-5.8-4.4-12.4-5.3-19.2c-1-7.4-0.6-15.3-0.6-24.1c0-16.2,0-33,0-49.4c-15,3.4-29.1,8.5-42.1,13.3c1.1-5.7,2.1-11.3,3.8-16.9
		c0.4-1.3,1.8-4.1,1.7-5.2c-0.1-1.2-2.9-2.7-3.9-3.4c-4.2-3.1-9-5.9-13.3-8.6c12.1-4.9,24.8-9.3,38.3-12.7c0-3.8,0-8.4,0-11.7
		C89.9,4.6,113.2,0.8,138.2,0z M137.9,4.1c-24.2,1.1-46.4,4-65.4,9.9c0,9.9,0,19.7,0,29.6c21.3-5.7,46-9.7,72.9-9.7
		c27,0,51.8,3.9,73.1,9.7c0-9.9,0-19.8,0-29.7C195.3,7.7,167.5,2.7,137.9,4.1z M39,36.3c4.7,2.8,9.2,5.8,13,9.5
		c-1.8,5.6-3.6,11.4-4.9,17.5c9.1-3.4,18.7-6.4,28.5-9.2c-1.2-0.9-2.3-1.7-3.6-2.7c-0.7-0.6-3-2.1-3.3-3c-0.4-1.2,0-3.6,0-5.3
		c0-1.8,0-3.7,0-5.5c0-3.7,0.7-8.1,0-11c0,0-0.3,0-0.3,0C58.2,29.5,48,32.4,39,36.3z M222.4,48.7c-1.5,1.4-3.7,2.9-5.3,4.2
		c-0.5,0.4-1.4,0.9-1.3,1.4c9.7,2.7,19.1,5.7,28,9.1c-1.1-6.4-3-12-4.9-17.7c4-3.6,8.7-6.5,13-9.7c-9.6-3.4-19.1-6.7-29.6-9.2
		C222.4,34.1,222.4,41.4,222.4,48.7z M73.5,47.3c1.1,1.6,3.3,2.9,5.2,4.4c1.4,1.1,2.8,2.3,4.1,3.3c0.3,0.3,0.8,0.8,1.3,0.6
		c0-1.9,0-3.9,0-5.8c36.5-9.4,87-9.3,122.8,0c0,2,0,4,0,5.9c3-1.9,6.7-5,9.5-7.4c0.3-0.3,1.1-0.4,0.9-0.9
		C175.7,34.5,115.6,34.8,73.5,47.3z M87.9,52.9c0,16,0,31.9,0,47.9c35.1-5.3,80-5.4,115,0c0-16,0-32,0-48
		C169.5,44.8,121.2,44.6,87.9,52.9z M134.1,105c-0.6,5.4,5.1,6.1,5.6,9.4c0.5,3.4-3.7,2.4-2.8-0.9c-0.9,0-1.8,0-2.7,0
		c0,1.9,0,3.9,0,5.8c0.9,0,1.9,0.1,2.5-0.2c0.3,0,0.1-0.7,0.2-0.9c3,2.8,6.7-0.2,6.7-3.6c0.1-5.3-6.3-6.4-5.8-9.4
		c0.4-2.4,3.5-0.5,2.7,1.7c0.9,0,1.8,0,2.7,0c0-1.8,0-3.7,0-5.5c-0.9,0-1.8,0-2.7,0c0,0.4,0,0.7,0,1.1
		C137.8,99.9,134.4,102.3,134.1,105z M144.9,104.2c0.5,0.1,1.3-0.2,1.6,0.2c0,4,0,7.9,0,11.9c-0.3,0.3-1,0.1-1.6,0.2
		c0,0.9,0,1.8,0,2.7c4,0,8.1-0.1,11.9,0.2c0-1.9,0-3.9,0-5.8c-1.2,0.1-2-0.2-3.1-0.2c0,1,0,2.1,0,3.1c-0.9-0.1-2.3,0.2-3-0.2
		c0-1.6,0-3.2,0-4.9c0.8,0,1.6,0,2.3,0c-0.1-0.9,0.2-2.1-0.2-2.7c-0.7-0.1-1.8,0.2-2.2-0.2c0-1.5,0-2.9,0-4.4c0.9,0.1,2.3-0.2,3,0.2
		c0,0.9,0,1.9,0,2.8c1,0,2.1,0,3.1,0c0-1.9,0-3.8,0-5.6c-4.1,0.1-7.8-0.3-11.9-0.2C144.9,102.3,144.9,103.3,144.9,104.2z
		 M124.6,119.6c9.9,3,11-19.4,1.3-17.8C119,102.8,118.7,117.8,124.6,119.6z M165.6,104.5c0.3,0.2,0.9,0,1.1,0.3c0,4,0,8,0,12
		c-0.4,0-0.7,0-1.1,0c0,0.9,0,1.8,0,2.7c2.3,0,4.3,0.2,6.4,0.3c0-0.9,0-1.8,0-2.7c-0.3-0.2-0.9,0-1.1-0.3c0.1-1.6-0.2-3.5,0.2-4.9
		c0.5,0,0.7,0.3,1.3,0.2c0.4,2.7,1.1,5.1,1.6,7.8c1.5-0.1,2.5,0.2,3.9,0.2c0-0.8,0-1.7,0-2.5c-0.1-0.4-0.9,0-0.8-0.5
		c-0.4-2-0.8-4-1.3-5.9c1.3-1,2-2.2,1.7-4.2c-0.6-5.1-6.2-5-11.9-5.2C165.6,102.8,165.6,103.6,165.6,104.5z M110.8,120.2
		c10,3.6,11.2-19.3,1.6-17.7C105.8,103.6,104.8,118.1,110.8,120.2z M178.9,105.3c0.2,0.4,1.3-0.1,1.6,0.3c0,4,0,8,0,12
		c-0.5,0-1,0-1.6,0c0,0.9,0,1.8,0,2.7c2.5,0,5.4,0.6,7.5,0.5c0-0.8,0-1.7,0-2.5c-0.3-0.4-1.5,0.1-1.7-0.3c0.1-1.6-0.2-3.5,0.2-4.9
		c0.9-0.1,1.3,0.3,2.2,0.2c0-0.9,0-1.8,0-2.7c-0.7-0.1-1.7,0-2.3-0.3c0-1.5,0-3,0-4.5c0.9,0.3,2.3,0.1,3.1,0.5c0,0.9,0,1.9,0,2.8
		c1,0.1,2.1,0.2,3.1,0.3c0-1.9,0-3.8,0-5.6c-3.9-0.5-8-0.7-12-1.1C178.9,103.5,178.9,104.4,178.9,105.3z M98.1,103.9
		c-0.5,2.3-0.5,5-1.3,7c-0.5-2.1-0.8-4.5-1.1-6.7c-2.4,0.2-4.6,0.6-6.9,0.8c0,0.9,0,1.8,0,2.7c0.4,0.1,1.1-0.2,1.3,0.2
		c0,4,0,7.9,0,11.9c-0.2,0.2-0.8,0.1-1.3,0.2c0,0.9,0,1.9,0,2.8c1.5-0.3,3.1-0.4,4.7-0.6c0-0.9,0-1.8,0-2.7
		c-0.3-0.1-0.9,0.2-0.9-0.2c0.1-4-0.2-8.5,0.2-12.2c1,4.8,1.9,9.7,2.8,14.7c0.5,0,0.9,0,1.4,0c1.2-5,1.6-10.8,3.1-15.5
		c0,4.1,0,8.2,0,12.4c-0.3,0.2-1-0.1-0.9,0.5c0,0.8,0,1.6,0,2.3c2.1-0.2,4.3-0.3,6.3-0.6c0-0.9,0-1.8,0-2.7c-0.5-0.2-0.9,0.4-1.1,0
		c0-4,0-8,0-12c0.2-0.2,0.7-0.2,1.1-0.2c0-0.9,0-1.8,0-2.7C102.9,103.4,100.6,103.8,98.1,103.9z M196.9,104.1
		c-7.5-0.1-6.8,14.2-2.2,17.4c3.6,2.5,7.4-0.1,7.5-4.1c-1-0.5-2.2-0.9-3.3-1.4c-0.1,1.5-0.1,3.4-1.4,3.4c-1.7,0-1.8-7.2-1.4-10.3
		c0.4-3.4,2.9-1.7,2.7,1.6c1.1,0,1.9,0.3,3,0.3c0-2,0-4,0-5.9c-0.9-0.2-1.8-0.3-2.8-0.3c-0.3,0-0.1,0.7-0.2,0.9
		C198.2,105,197.6,104.5,196.9,104.1z M88.4,128.2c2.4,17.2,9.1,29.6,19.1,39.6c8.2,8.2,19.5,15.2,32.2,19.2
		c1.9,0.6,4.4,1.6,5.8,1.6c1.4,0,3.7-0.9,5.6-1.6c1.9-0.6,3.8-1.4,5.3-2c24.4-9.8,41.6-27.6,46-56.8C167.7,123,123.3,123,88.4,128.2
		z"/>
</g>
<g id="antlers">
	<path style="fill-rule:evenodd;clip-rule:evenodd;fill:#015353;" d="M0,123.3c0-0.4,0-0.7,0-1.1c4.9-6.7,17.7-1.2,25.8,0
		c2.7,0.4,5.5,1,6.9,0.3c4.1-2.1-1.9-8.9-3.3-10.5c-5.5-6.5-10.6-12.5-19.1-16.1c-1.7-0.7-4.3-1.2-4.2-2.8c0.1-1.9,3.3-2.1,5.5-1.7
		c5.3,0.9,12.2,5,16.4,7.7c2,1.2,3,2.7,5.3,2.8c3.7,0.3,5.2-4.9,4.4-8.6c-0.7-3.1-2.8-6.7-4.5-9.5c-2.1-3.3-4.1-5.4-6.4-7.7
		c-1.1-1.1-4.7-2.9-4.2-4.4c1-2.9,6.6,0.7,7.2,1.1c4.8,3.1,6.6,6.2,10.6,9.7c1.7,1.4,4.1,3.9,6.4,3.8c3.7-0.2,4.3-3.7,3.3-7.4
		c-0.3-1.2-4.1-7.5-1.6-8.6c3.4-1.5,5,9.4,8.3,7.8c1.1-1.2,0.6-3.2,0.3-5.6c-0.2-1.6-1.3-5.2,0.5-5.6c2.1-0.5,2.8,3.1,3.3,4.7
		c0.7,2.2,0.7,4.8,2.3,5.6c0.7-1.2,0.5-4.8,0.9-6.6c0.3-1.4,1.1-5.1,2.3-5.2c1.5-0.1,2.4,3.1,2.7,5c0.3,1.9-0.1,6.1,1.7,5.9
		c1.4-0.1,1.4-4,1.6-5.5c0.2-1.9-0.1-5.2,1.6-5.3c2.6-0.3,2.2,3.4,2.2,5.9c0,19.3-0.1,38.4,0.8,55.9c1,21,8.9,34.1,19.7,45.4
		c10.8,11.2,24.5,19.8,38.3,27.1c14.7,7.7,29.4,13.3,46.2,19.4c0.1,10.2-6.1,14.1-13.1,17.2c-2.4-5.1-7.2-7.9-11.6-10.6
		c-13.9-8.7-28.7-15.5-43-24.1c-6.9-4.1-13.9-9.3-24.6-8.4c-3.3,0.3-5.7,1.5-8.5,2.8c-7.5,3.5-14.4,7.9-20.7,12.8
		c-1.5,1.2-5.2,4.8-7.2,3.8c-1.8-0.9,0.5-4.4,1.3-5.5c2.5-3.6,4.3-5.1,6.9-8.1c1.2-1.4,2.8-2.9,2.5-5c-0.6-4.1-7.2-2.8-10.5-2.3
		c-4,0.6-8.7,0.9-12.7,0.6c-9.1-0.6-16.2-3.7-20.2-8.3c-0.6-0.7-4.1-5.5-1.9-6.7c1.7-1,3.2,1.6,4.1,2.5c1.3,1.4,2.5,2.6,3.8,3.3
		c5.7,3.3,19.6,2.7,24.7-1.1c1.8-1.3,3.2-3.8,2.7-6.4c-1.6-8.3-13-12.9-20.5-15.3c-6.5-2.1-13.6-4.7-21-5.8c-2.4-0.4-6.8-0.3-7-2
		c-0.6-4.8,12.6-2,14.9-1.6c5.2,1.1,12.1,2.9,16,1.6c3.2-1.1,3.9-4.6,2.8-8.1c-3.2-10.2-13.8-16-24.1-19.1c-3-0.9-5.7-1.8-9.2-1.6
		C3.3,123.7,1.1,124.8,0,123.3z"/>
	<path style="fill-rule:evenodd;clip-rule:evenodd;fill:#015353;" d="M227.7,77.1c1.5-0.2,1.7-3.6,2.3-5.6c0.5-1.6,1.3-5.1,3.3-4.7
		c1.7,0.4,0.6,4.3,0.5,5.6c-0.3,2.1-0.9,5.4,0.6,5.8c1.8,0.4,3.4-3.3,3.9-4.2c0.7-1.2,2.2-4.5,4.1-3.8c2.6,1-0.8,6.1-1.6,8.6
		c-1,3.5,0.1,7.2,3.3,7.4c2.5,0.1,4.9-2.3,6.6-3.8c4.1-3.6,5.4-6.5,10.5-9.9c0.7-0.5,2.3-1.4,3.4-1.7c0.7-0.2,3.6-0.4,3.9,0.8
		c0.4,1.5-2.7,3-3.3,3.4c-4,3.5-9.4,10.6-11.6,16.7c-1.4,3.8-0.5,9.9,3.9,10c2.1,0,3.8-1.8,5.5-2.8c3.3-2.1,6.7-4.1,10.8-5.8
		c2-0.8,4.3-1.8,6.3-2c2.2-0.2,4.6,0,4.7,1.9c0.1,1.6-2.2,2.1-3.6,2.7c-7.8,3.3-12.1,7.9-17.2,13.6c-2.1,2.3-4.3,4.6-5.6,6.7
		c-1,1.6-2.5,5.5,0,6.6c2.1,0.9,9.4-1,11.6-1.4c5.2-1,9.5-2.9,15-2.3c2.7,0.3,6.2,1.1,5.8,4.9c-2.4,0.6-4.6-0.3-6.9-0.2
		c-2.1,0.1-4.2,0.6-6.3,1.3c-10.8,3.2-22.4,9.2-25.2,20c-2.6,10.2,9.1,7.9,16.4,6.4c4.8-1,8.3-2.3,13.6-1.7c1.7,0.2,4,0.9,3.8,2.8
		c-0.2,1.6-4.4,1.7-6.9,2c-7.3,1.1-14.7,3.5-21,5.6c-7.3,2.4-18.8,7.2-20.5,15c-0.8,3.6,1.1,6.1,3.3,7.4c6.9,3.9,20.3,4.2,26-0.6
		c2.1-1.7,2.8-5,6.1-4.5c1.1,2.2-0.4,4-1.3,5.3c-6.2,9-20,10.8-33,9.2c-3.8-0.5-11-2.1-11.3,2.7c-0.1,1.8,1.6,3.6,2.7,4.9
		c2.4,2.9,4.8,4.8,6.9,8c0.9,1.3,2.4,3.1,1.3,5.2c-1.9,0.8-3.6-0.7-4.9-1.6c-4.1-2.9-7.6-6.3-12-9.1c-2.8-1.7-5.9-3.2-9.2-4.9
		c-4.4-2.2-8-4.2-14.7-3.8c-7.8,0.5-13.3,4.4-18.9,7.8c-5.8,3.5-11.3,6.6-17.1,9.5c-4.9-2.1-9.9-4.1-14.7-6.3
		c12.1-5.9,22.9-11.9,33.3-19.6c9.9-7.3,19.3-16.1,25.7-27.2c3.2-5.5,5.9-12.1,7-19.4c1.2-7.3,1.4-15.7,1.6-23.9
		c0.3-11.6,0.1-24.3,0.2-38.3c0-2.5-0.9-11,2.3-10.2c2.8,0.7,0.3,9.5,3,10.6c2-0.6,1.4-3.4,1.7-5.3c0.2-1.6,1.1-5.8,2.5-5.6
		c1.9,0.2,2.8,5.5,3,7.7C227.4,74.7,226.9,76.3,227.7,77.1z"/>
	<path style="fill-rule:evenodd;clip-rule:evenodd;fill:#015353;" d="M144.1,220.2c-7.5,5-16.7,8.2-21.3,16.1
		c-7.3-2.6-13.6-7.8-13-17.2c6.4-2.3,12.9-4.6,19.1-7C134.1,214.6,139,217.5,144.1,220.2z"/>
</g>
</svg>
